<svg xmlns="http://www.w3.org/2000/svg" viewBox="0 0 32 32" width="20" height="20" style="border-color: rgba(0,0,0,0);border-width: bpx;border-style: undefined" filter="none">
    
    <g>
    <path d="M28.384 21.888c-0.088-0.094-0.143-0.222-0.143-0.362 0-0.103 0.029-0.199 0.080-0.28l-0.001 0.002c0.783-1.198 1.248-2.666 1.248-4.242 0-0.016-0-0.032-0-0.049v0.003c0-4.416-3.584-8-8-8s-8.032 3.584-8.032 8c0 4.448 3.616 8.032 8.032 8.032 1.702-0.001 3.279-0.541 4.568-1.456l-0.024 0.017c0.192-0.128 0.48-0.128 0.64 0.064l2.816 2.784c0.032 0.032 0.032 0.064 0.064 0.064l0.576 0.576c0.192 0.16 0.448 0.16 0.608 0l1.056-1.056c0.074-0.079 0.12-0.186 0.12-0.304s-0.046-0.225-0.12-0.304l0 0-3.488-3.488zM26.4 20.704c-0.262 0.358-0.546 0.673-0.859 0.955l-0.005 0.005c-1.067 0.894-2.454 1.437-3.967 1.44h-0.001c-3.392 0-6.144-2.752-6.144-6.144s2.752-6.112 6.144-6.112c3.36 0 6.112 2.752 6.112 6.112 0 1.408-0.48 2.72-1.28 3.744zM6.016 10.656h-1.952c-0.004-0-0.009-0-0.013-0-0.223 0-0.403 0.18-0.403 0.403 0 0.005 0 0.009 0 0.014l-0-0.001v10.976c0 0.224 0.16 0.416 0.416 0.416h1.952c0.256 0 0.448-0.192 0.448-0.416v-10.976c0-0.224-0.192-0.416-0.448-0.416zM10.528 6.048h-1.984c-0.228 0.004-0.412 0.188-0.416 0.416v15.68c0 0.224 0.192 0.416 0.416 0.416h1.984c0.228-0.004 0.412-0.188 0.416-0.416v-15.68c-0.004-0.228-0.188-0.412-0.416-0.416h-0zM19.328 6.048h-1.984c-0.228 0.004-0.412 0.188-0.416 0.416v2.080c0 0.224 0.16 0.32 0.384 0.224 0.64-0.288 1.312-0.512 2.016-0.672 0.231-0.045 0.405-0.241 0.416-0.479l0-0.001v-1.152c-0.004-0.228-0.188-0.412-0.416-0.416h-0zM14.848 10.016c-0.512-0.032-1.44-0.032-1.952-0.032-0.004-0-0.009-0-0.013-0-0.223 0-0.403 0.18-0.403 0.403 0 0.005 0 0.009 0 0.014l-0-0.001v3.008c0 0.224 0.064 0.224 0.16 0.032 0.566-1.233 1.343-2.276 2.295-3.128l0.009-0.008c0.192-0.16 0.128-0.288-0.096-0.288zM1.504 23.776v-18.496c0-0.256-0.192-0.448-0.416-0.448h-0.672c-0.224 0-0.416 0.192-0.416 0.448v20c0 0.224 0.192 0.416 0.416 0.416h15.936c0.224 0 0.256-0.096 0.032-0.192-0.48-0.32-0.928-0.64-1.376-1.024-0.16-0.16-0.48-0.288-0.736-0.288h-12.352c-0.228-0.004-0.412-0.188-0.416-0.416v-0z" fill="rgba(177.98999999999998,177.98999999999998,177.98999999999998,1)"></path>
    </g>
  </svg>