<svg xmlns="http://www.w3.org/2000/svg" viewBox="0 0 48 48" width="20" height="20" style="border-color: rgba(0,0,0,0);border-width: bpx;border-style: undefined" filter="none">
    
    <g>
    <rect width="48" height="48" fill="rgba(177.98999999999998,177.98999999999998,177.98999999999998,1)" fill-opacity="0.01" stroke="none"></rect><path d="M43 4H5C4.44772 4 4 4.48842 4 5.09091V14.9091C4 15.5116 4.44772 16 5 16H43C43.5523 16 44 15.5116 44 14.9091V5.09091C44 4.48842 43.5523 4 43 4Z" fill="none" stroke="rgba(177.98999999999998,177.98999999999998,177.98999999999998,1)" stroke-width="4" stroke-linejoin="round"></path><path d="M43 32H5C4.44772 32 4 32.4884 4 33.0909V42.9091C4 43.5116 4.44772 44 5 44H43C43.5523 44 44 43.5116 44 42.9091V33.0909C44 32.4884 43.5523 32 43 32Z" fill="none" stroke="rgba(177.98999999999998,177.98999999999998,177.98999999999998,1)" stroke-width="4" stroke-linejoin="round"></path><path d="M14 16V24.0083L34 24.0172V32" stroke="rgba(177.98999999999998,177.98999999999998,177.98999999999998,1)" stroke-width="4" stroke-linecap="round" stroke-linejoin="round" fill="none"></path><path d="M18 38H30" stroke="rgba(177.98999999999998,177.98999999999998,177.98999999999998,1)" stroke-width="4" stroke-linecap="round" stroke-linejoin="round" fill="none"></path><path d="M18 10H30" stroke="rgba(177.98999999999998,177.98999999999998,177.98999999999998,1)" stroke-width="4" stroke-linecap="round" stroke-linejoin="round" fill="none"></path>
    </g>
  </svg>