<svg xmlns="http://www.w3.org/2000/svg" viewBox="0 0 48 48" width="20" height="20" style="border-color: rgba(0,0,0,0);border-width: bpx;border-style: undefined" filter="none">
    
    <g>
    <rect width="48" height="48" fill="rgba(177.98999999999998,177.98999999999998,177.98999999999998,1)" fill-opacity="0.01" stroke="none"></rect><rect width="48" height="48" fill="rgba(177.98999999999998,177.98999999999998,177.98999999999998,1)" fill-opacity="0.01" stroke="none"></rect><path d="M9 15V9.56389C9 8.67237 9.08702 8.34908 9.25044 8.02315C9.41385 7.69723 9.65365 7.44144 9.95921 7.26713C10.2648 7.09283 10.5678 7 11.4036 7H36.5964C37.4322 7 37.7352 7.09283 38.0408 7.26713C38.3463 7.44144 38.5862 7.69723 38.7496 8.02315C38.913 8.34908 39 8.67237 39 9.56389V15" stroke="rgba(177.98999999999998,177.98999999999998,177.98999999999998,1)" stroke-width="4" stroke-linecap="round" stroke-linejoin="round" fill="none"></path><path d="M5 15H43V41H5V15Z" stroke="rgba(177.98999999999998,177.98999999999998,177.98999999999998,1)" stroke-width="4" stroke-linejoin="round" fill="none"></path><path fill-rule="evenodd" clip-rule="evenodd" d="M13 26C14.6569 26 16 24.6569 16 23C16 21.3431 14.6569 20 13 20C11.3431 20 10 21.3431 10 23C10 24.6569 11.3431 26 13 26Z" fill="rgba(177.98999999999998,177.98999999999998,177.98999999999998,1)" stroke="none"></path><path d="M5.56885 40.39L14.9999 30L19.9999 34L25.9999 27L42.3937 40.39" stroke="rgba(177.98999999999998,177.98999999999998,177.98999999999998,1)" stroke-width="4" stroke-linecap="round" stroke-linejoin="round" fill="none"></path>
    </g>
  </svg>