<svg xmlns="http://www.w3.org/2000/svg" viewBox="0 0 48 48" width="20" height="20" style="border-color: rgba(0,0,0,0);border-width: bpx;border-style: undefined" filter="none">
    
    <g>
    <rect width="48" height="48" fill="rgba(177.98999999999998,177.98999999999998,177.98999999999998,1)" fill-opacity="0.01" stroke="none"></rect><path d="M22 8V20C22 22.2091 17.9706 24 13 24C8.02944 24 4 22.2091 4 20V8" stroke="rgba(177.98999999999998,177.98999999999998,177.98999999999998,1)" stroke-width="4" stroke-linecap="round" stroke-linejoin="round" fill="none"></path><path d="M22 14C22 16.2091 17.9706 18 13 18C8.02944 18 4 16.2091 4 14" stroke="rgba(177.98999999999998,177.98999999999998,177.98999999999998,1)" stroke-width="4" stroke-linecap="round" stroke-linejoin="round" fill="none"></path><path d="M22 8C22 10.2091 17.9706 12 13 12C8.02944 12 4 10.2091 4 8C4 5.79086 8.02944 4 13 4C17.9706 4 22 5.79086 22 8Z" fill="none" stroke="rgba(177.98999999999998,177.98999999999998,177.98999999999998,1)" stroke-width="4" stroke-linecap="round" stroke-linejoin="round"></path><path d="M32 6H38C40.2091 6 42 7.79086 42 10V16" stroke="rgba(177.98999999999998,177.98999999999998,177.98999999999998,1)" stroke-width="4" stroke-linecap="round" stroke-linejoin="round" fill="none"></path><path d="M16 42H10C7.79086 42 6 40.2091 6 38V32" stroke="rgba(177.98999999999998,177.98999999999998,177.98999999999998,1)" stroke-width="4" stroke-linecap="round" stroke-linejoin="round" fill="none"></path><circle cx="35" cy="29" r="5" fill="none" stroke="rgba(177.98999999999998,177.98999999999998,177.98999999999998,1)" stroke-width="4" stroke-linecap="round" stroke-linejoin="round"></circle><path d="M44 44H26C26 39.0294 30.0294 35 35 35C39.9706 35 44 39.0294 44 44Z" fill="none" stroke="rgba(177.98999999999998,177.98999999999998,177.98999999999998,1)" stroke-width="4" stroke-linecap="round" stroke-linejoin="round"></path>
    </g>
  </svg>